<svg width="17" height="18" viewBox="0 0 17 18" fill="none" xmlns="http://www.w3.org/2000/svg">
<path d="M16.959 5.64663C16.9208 4.78167 16.781 4.18702 16.5806 3.67175C16.3739 3.1248 16.0559 2.63511 15.6392 2.22803C15.2322 1.81462 14.7392 1.49338 14.1986 1.28991C13.6804 1.08954 13.0888 0.949663 12.2239 0.911527C11.3525 0.870161 11.0758 0.860596 8.86564 0.860596C6.65548 0.860596 6.37884 0.870161 5.51065 0.908297C4.64569 0.946433 4.05104 1.08643 3.53589 1.28668C2.98881 1.49338 2.49913 1.81139 2.09205 2.22803C1.67864 2.63511 1.35752 3.12803 1.15392 3.66864C0.953551 4.18702 0.813677 4.77844 0.775541 5.6434C0.734174 6.51482 0.724609 6.79147 0.724609 9.00163C0.724609 11.2118 0.734174 11.4884 0.772311 12.3566C0.810447 13.2216 0.950446 13.8162 1.15082 14.3315C1.35752 14.8785 1.67864 15.3681 2.09205 15.7752C2.49913 16.1886 2.99204 16.5099 3.53266 16.7134C4.05104 16.9137 4.64246 17.0536 5.50754 17.0917C6.37561 17.13 6.65238 17.1394 8.86254 17.1394C11.0727 17.1394 11.3493 17.13 12.2175 17.0917C13.0825 17.0536 13.6771 16.9137 14.1923 16.7134C15.2863 16.2904 16.1513 15.4254 16.5743 14.3315C16.7745 13.8131 16.9145 13.2216 16.9526 12.3566C16.9908 11.4884 17.0003 11.2118 17.0003 9.00163C17.0003 6.79147 16.9971 6.51482 16.959 5.64663ZM15.493 12.293C15.458 13.088 15.3245 13.5174 15.2132 13.8036C14.9396 14.5128 14.3768 15.0756 13.6676 15.3491C13.3814 15.4604 12.949 15.594 12.157 15.6289C11.2984 15.6672 11.0409 15.6766 8.86887 15.6766C6.69685 15.6766 6.4361 15.6672 5.58058 15.6289C4.78556 15.594 4.35625 15.4604 4.07004 15.3491C3.71713 15.2187 3.39589 15.012 3.13514 14.7417C2.86484 14.4777 2.65813 14.1597 2.5277 13.8068C2.41639 13.5206 2.28285 13.088 2.24795 12.2963C2.20969 11.4376 2.20025 11.18 2.20025 9.00797C2.20025 6.83594 2.20969 6.5752 2.24795 5.7198C2.28285 4.92478 2.41639 4.49547 2.5277 4.20926C2.65813 3.85622 2.86484 3.5351 3.13837 3.27424C3.40222 3.00393 3.72023 2.79722 4.07327 2.66691C4.35948 2.55561 4.79202 2.42207 5.58381 2.38704C6.44244 2.3489 6.70008 2.33934 8.87198 2.33934C11.0472 2.33934 11.3048 2.3489 12.1603 2.38704C12.9553 2.42207 13.3846 2.55561 13.6708 2.66691C14.0237 2.79722 14.345 3.00393 14.6057 3.27424C14.876 3.53821 15.0827 3.85622 15.2132 4.20926C15.3245 4.49547 15.458 4.92788 15.493 5.7198C15.5312 6.57842 15.5407 6.83594 15.5407 9.00797C15.5407 11.18 15.5312 11.4344 15.493 12.293Z" fill="#3C2C2C"/>
<path d="M8.86541 4.81992C6.55674 4.81992 4.68359 6.69294 4.68359 9.00174C4.68359 11.3105 6.55674 13.1836 8.86541 13.1836C11.1742 13.1836 13.0472 11.3105 13.0472 9.00174C13.0472 6.69294 11.1742 4.81992 8.86541 4.81992ZM8.86541 11.7144C7.36767 11.7144 6.15277 10.4996 6.15277 9.00174C6.15277 7.50386 7.36767 6.28909 8.86541 6.28909C10.3633 6.28909 11.5781 7.50386 11.5781 9.00174C11.5781 10.4996 10.3633 11.7144 8.86541 11.7144Z" fill="#3C2C2C"/>
<path d="M14.189 4.65442C14.189 5.19355 13.7518 5.63069 13.2126 5.63069C12.6735 5.63069 12.2363 5.19355 12.2363 4.65442C12.2363 4.11518 12.6735 3.67816 13.2126 3.67816C13.7518 3.67816 14.189 4.11518 14.189 4.65442Z" fill="#3C2C2C"/>
</svg>
