<svg width="17" height="18" viewBox="0 0 17 18" fill="none" xmlns="http://www.w3.org/2000/svg">
<path d="M16.72 17.1554V17.1547H16.7241V11.1727C16.7241 8.24632 16.0941 5.99203 12.6729 5.99203C11.0283 5.99203 9.92457 6.89456 9.47399 7.7502H9.42642V6.26524H6.18262V17.1547H9.5603V11.7626C9.5603 10.3429 9.82943 8.97011 11.5876 8.97011C13.3199 8.97011 13.3458 10.5903 13.3458 11.8537V17.1554H16.72Z" fill="#3C2C2C"/>
<path d="M0.681641 6.26596H4.0634V17.1554H0.681641V6.26596Z" fill="#3C2C2C"/>
<path d="M2.37173 0.844604C1.29047 0.844604 0.413086 1.72199 0.413086 2.80325C0.413086 3.88452 1.29047 4.78025 2.37173 4.78025C3.453 4.78025 4.33038 3.88452 4.33038 2.80325C4.3297 1.72199 3.45232 0.844604 2.37173 0.844604V0.844604Z" fill="#3C2C2C"/>
</svg>
