<svg width="17" height="14" viewBox="0 0 17 14" fill="none" xmlns="http://www.w3.org/2000/svg">
<path d="M16.4131 1.65738C15.8181 1.93846 15.1841 2.12477 14.5231 2.21523C15.2031 1.778 15.7221 1.09092 15.9661 0.262769C15.3321 0.669846 14.6321 0.957385 13.8861 1.11785C13.2841 0.427539 12.4261 0 11.4901 0C9.67409 0 8.21209 1.58738 8.21209 3.53339C8.21209 3.81339 8.23409 4.08262 8.28809 4.33892C5.56109 4.19569 3.14809 2.78815 1.52709 0.644C1.24409 1.17277 1.07809 1.778 1.07809 2.42954C1.07809 3.65292 1.66309 4.73738 2.53509 5.36523C2.00809 5.35446 1.49109 5.18969 1.05309 4.93015C1.05309 4.94092 1.05309 4.95492 1.05309 4.96892C1.05309 6.68554 2.19009 8.11139 3.68109 8.43985C3.41409 8.51846 3.12309 8.55615 2.82109 8.55615C2.61109 8.55615 2.39909 8.54323 2.20009 8.49585C2.62509 9.89477 3.83109 10.9232 5.26509 10.9566C4.14909 11.8968 2.73209 12.4632 1.19809 12.4632C0.929086 12.4632 0.671086 12.4503 0.413086 12.4148C1.86609 13.4238 3.58809 14 5.44509 14C11.4811 14 14.7811 8.61539 14.7811 3.948C14.7811 3.79185 14.7761 3.64108 14.7691 3.49138C15.4201 2.99385 15.9671 2.37246 16.4131 1.65738Z" fill="#3C2C2C"/>
</svg>
